<?xml version="1.0" encoding="UTF-8"?>
<svg xmlns="http://www.w3.org/2000/svg" viewBox="0 0 580 254.16" aria-label="DeMur">
  <defs>
    <style>
      .dl-shape { stroke-width: 0px; fill: currentColor; }
      .dl-text { fill: currentColor; font-family: 'Helvetica Neue', Helvetica, Arial, sans-serif; font-size: 79.36px; font-weight: 700; letter-spacing: -0.04em; }
    </style>
  </defs>
  <path class="dl-shape" d="M108.83,228.3c.08-.5.23-1.01.23-1.51.03-10.87.05-21.74.06-32.61.02-20.54.03-41.09.05-61.63.01-10.82.07-21.64.09-32.46.05-21.07.1-42.14.14-63.21.02-9.67.03-19.35.05-29.02,0-3.54,1.44-5.63,4.77-6.88,3.44-1.29,6.94-1.21,10.44-.3,4.62,1.19,8.92,3.11,12.12,6.72,1.62,1.82,2.82,4.08,3.95,6.27,9.21,17.79,18.37,35.61,27.54,53.42.26.5.55.98.93,1.64,1.25-1.64,2.41-3.13,3.55-4.64,10.06-13.28,20.19-26.5,30.13-39.87,3.35-4.52,7.55-6.23,12.95-5.43,5.97.89,11.04,3.58,15.39,7.72,2.7,2.57,3.16,5.98,3.73,9.4,3.21,19.25,6.46,38.48,9.69,57.73,3.02,18.02,6.04,36.04,9.05,54.05,1.64,9.76,3.34,19.52,4.89,29.3.84,5.33-1.85,8.9-7.2,9.3-8.14.61-15.13-2.15-20.84-8.01-1.92-1.97-2.54-4.51-2.98-7.16-3.04-18.31-6.13-36.6-9.21-54.9-2.61-15.52-5.21-31.04-7.82-46.55-.02-.09-.05-.18-.13-.43-.3.32-.56.56-.77.84-8.1,10.68-16.34,21.26-24.22,32.09-3.67,5.04-8.29,6.86-14.17,5.98-5.56-.82-10.55-3.09-14.16-7.47-1.98-2.4-3.32-5.34-4.78-8.13-3.63-6.9-7.16-13.85-10.73-20.77-.12-.24-.26-.46-.61-1.08-.05.88-.1,1.32-.1,1.77-.04,13.41-.07,26.81-.1,40.22-.03,15.66-.03,31.32-.05,46.98-.01,10.58-.03,21.17-.05,31.75-.02,10.97-.06,21.93-.1,32.9-.02,7.23-.17,14.46-.05,21.69.08,4.82-2.08,7.25-5.93,7.99-.08.01-.13.12-.2.19h-5.17c-.77-.2-1.55-.36-2.31-.6-8.15-2.54-15.61-5.91-18.09-15.2,0-3.35,0-6.71,0-10.06Z"/>
  <path class="dl-shape" d="M574.84,223.03c-2.48,5.25-6.62,7.16-12.87,5.92-4.04-.8-7.72-2.49-11.19-4.67-37.73-23.77-75.44-47.55-113.17-71.32-1.89-1.19-3.78-2.37-5.96-3.73.15,2,.3,3.69.41,5.38,1.15,18.38,2.31,36.76,3.44,55.14.2,3.2.25,6.41.39,9.61.16,3.89-2.17,6.48-6.75,7.07-8.76,1.13-15.96-1.99-21.79-8.46-2.55-2.83-2.92-6.37-3.1-10.04-.9-17.87-1.57-35.76-3.03-53.59-1.61-19.59-3.63-39.16-6.14-58.66-2.28-17.73-5.42-35.36-8.25-53.02-.22-1.39-1.05-2.67-1.38-4.05-.85-3.55.41-6.17,3.64-7.87,3.11-1.64,6.45-1.58,9.82-1.31,14.12,1.13,28.24,2.26,42.35,3.4,12.54,1.01,25.08,2.04,37.63,3.06,6.1.49,12.23.81,18.31,1.51,7.21.83,13.17,4.25,17.65,9.95,3.14,3.99,2.79,7.86-.66,11.65-12.47,13.7-24.95,27.38-37.42,41.07-10.06,11.04-20.11,22.08-30.16,33.12-.16.17-.3.36-.54.65,2.78,1.76,5.51,3.5,8.25,5.23,37.44,23.59,74.88,47.19,112.33,70.76,4.06,2.55,6.78,6.06,8.19,10.62v2.59ZM419.07,53.83c2.67,17.55,5.31,34.88,7.97,52.35,14.61-16.04,29.14-31.99,43.89-48.18-17.55-1.41-34.68-2.78-51.86-4.16Z"/>
  <path class="dl-shape" d="M272.91,113.74c0-17,.14-34-.07-51-.08-6.75,4.08-8.56,8.73-8.36,7.61.33,14.08,3.36,19.38,8.78,2.32,2.38,3.47,5.24,3.46,8.68-.04,16.57.04,33.14.06,49.71.02,13.12,0,26.24,0,39.36,0,5.21-.19,10.44.13,15.63.18,2.91.93,5.87,1.89,8.64,1.96,5.65,5.04,7.66,11.03,7.72,16.47.17,29.82-9.88,34.16-25.75,2.4-8.76,2.91-17.74,2.64-26.76-.71-23.59-8.14-45.41-17.78-66.62-6.83-15.03-14.81-29.47-22.71-43.95-.53-.96-1.04-1.95-1.41-2.98-2.03-5.68.84-10.16,6.82-10.93,7.92-1.01,18.59,3.94,22.59,11.56,8.37,15.96,17.21,31.68,24.64,48.13,7.02,15.55,12.81,31.52,16.35,48.26,2.6,12.27,4.04,24.65,3.28,37.21-.6,9.92-2.59,19.54-7.16,28.45-5.99,11.7-15.61,19.3-27.9,23.32-19.74,6.45-38.64,4.48-56.15-7.06-8.9-5.87-15.6-13.65-18.97-23.97-1.98-6.06-2.73-12.33-2.76-18.67-.06-16.47-.02-32.94-.02-49.41h-.24Z"/>
  <text class="dl-text" transform="translate(0 147.86) scale(.93 1)"><tspan x="0" y="0">DE</tspan></text>
</svg>
